<svg xmlns="http://www.w3.org/2000/svg" width="15.436" height="14.436" viewBox="0 0 15.436 14.436"><g transform="translate(-848.5 -17.5)"><path d="M1-.5H13.436a1.5,1.5,0,0,1,1.5,1.5V12.436a1.5,1.5,0,0,1-1.5,1.5H1a1.5,1.5,0,0,1-1.5-1.5V1A1.5,1.5,0,0,1,1-.5ZM13.436,12.936a.5.5,0,0,0,.5-.5V1a.5.5,0,0,0-.5-.5H1A.5.5,0,0,0,.5,1V12.436a.5.5,0,0,0,.5.5Z" transform="translate(849 18)" fill="#fff"/><path d="M5.23.5H0A.5.5,0,0,1-.5,0,.5.5,0,0,1,0-.5H5.23a.5.5,0,0,1,.5.5A.5.5,0,0,1,5.23.5Z" transform="translate(851.291 22.271)" fill="#fff"/><path d="M2317.685,1631.312l-.041,0a.5.5,0,0,1-.365-.207l-.573-.8a.5.5,0,1,1,.813-.583l.231.322,1.312-1.306a.5.5,0,0,1,.706.709l-1.728,1.721A.5.5,0,0,1,2317.685,1631.312Z" transform="translate(-1458.27 -1608.093)" fill="#fff"/><path d="M5.23.5H0A.5.5,0,0,1-.5,0,.5.5,0,0,1,0-.5H5.23a.5.5,0,0,1,.5.5A.5.5,0,0,1,5.23.5Z" transform="translate(851.291 27.345)" fill="#fff"/><path d="M2317.685,1657.418l-.042,0a.5.5,0,0,1-.365-.207l-.573-.8a.5.5,0,0,1,.813-.583l.231.322,1.312-1.306a.5.5,0,0,1,.706.709l-1.728,1.721A.5.5,0,0,1,2317.685,1657.418Z" transform="translate(-1458.27 -1629.126)" fill="#fff"/></g></svg>