<svg xmlns="http://www.w3.org/2000/svg" width="17.187" height="17.676" viewBox="0 0 17.187 17.676"><path d="M121.22,3.574a1,1,0,0,0,1-1V1a1,1,0,0,0-2,0V2.574A1,1,0,0,0,121.22,3.574Z" transform="translate(-116.314)" fill="#6f8d1b"/><path d="M334.842,3.574a1,1,0,0,0,1-1V1a1,1,0,0,0-2,0V2.574A1,1,0,0,0,334.842,3.574Z" transform="translate(-322.561)" fill="#6f8d1b"/><path d="M21.852,41.287h-.619v1.148a1.879,1.879,0,1,1-3.758,0V41.287H13.858v1.148a1.879,1.879,0,1,1-3.758,0V41.287H9.481A2.408,2.408,0,0,0,7.073,43.7V55.129a2.408,2.408,0,0,0,2.408,2.408H21.852a2.408,2.408,0,0,0,2.408-2.408V43.7A2.408,2.408,0,0,0,21.852,41.287Zm.513,13.419a1.117,1.117,0,0,1-1.116,1.116H10.085a1.117,1.117,0,0,1-1.116-1.116V45.761h13.4v8.945Z" transform="translate(-7.073 -39.862)" fill="#6f8d1b"/></svg>