<svg xmlns="http://www.w3.org/2000/svg" xmlns:xlink="http://www.w3.org/1999/xlink" width="34" height="34" viewBox="0 0 34 34">
  <defs>
    <clipPath id="clip-path">
      <rect id="長方形_15747" data-name="長方形 15747" width="22" height="22" transform="translate(-0.088 -0.192)" fill="none" stroke="#707070" stroke-width="1"/>
    </clipPath>
    <clipPath id="clip-path-2">
      <rect id="長方形_15781" data-name="長方形 15781" width="18.612" height="16.285" fill="none"/>
    </clipPath>
  </defs>
  <g id="グループ_18748" data-name="グループ 18748" transform="translate(-11.902 -7)">
    <circle id="楕円形_295" data-name="楕円形 295" cx="17" cy="17" r="17" transform="translate(11.902 7)" fill="#f2f5e9"/>
    <g id="マスクグループ_11" data-name="マスクグループ 11" transform="translate(17.99 13.192)" clip-path="url(#clip-path)">
      <g id="グループ_13531" data-name="グループ 13531" transform="translate(1.689 2.756)" clip-path="url(#clip-path-2)">
        <path id="パス_8249" data-name="パス 8249" d="M9.33,6.976c-2.89,0-6.979,4.471-6.979,7.27,0,1.272.981,2.017,2.6,2.017s2.944-.909,4.38-.909,2.617.909,4.38.909,2.6-.763,2.6-2.017c0-2.817-4.09-7.27-6.979-7.27M3.969,6.522A2.363,2.363,0,0,0,1.369,4.7,2.043,2.043,0,0,0,.152,7.431a2.353,2.353,0,0,0,2.6,1.818A2.051,2.051,0,0,0,3.987,6.5M7.058,5.74c1.127-.291,1.69-1.818,1.254-3.4S6.622-.258,5.5.051,3.8,1.869,4.241,3.45s1.69,2.617,2.817,2.326M17.291,4.7a2.363,2.363,0,0,0-2.6,1.818,2.071,2.071,0,0,0,1.236,2.745,2.363,2.363,0,0,0,2.6-1.818A2.071,2.071,0,0,0,17.291,4.7M11.6,5.758c1.127.291,2.381-.745,2.817-2.326S14.292.342,13.165.051,10.784.8,10.348,2.378s.127,3.09,1.254,3.4" transform="translate(-0.024 0.003)" fill="#6f8d1b"/>
      </g>
    </g>
  </g>
</svg>
